<?xml version="1.0" encoding="UTF-8"?>
<svg id="Layer_2" xmlns="http://www.w3.org/2000/svg" viewBox="0 0 86.86 51.59">
  <defs>
    <style>
      .cls-1 {
        fill: #fff;
      }
    </style>
  </defs>
  <g id="Layer_1-2" data-name="Layer_1">
    <path class="cls-1" d="M.53,40.21c-.38,1.02-.56,2.11-.52,3.2.04,1.09.29,2.16.75,3.15.46.99,1.1,1.88,1.9,2.63.77.77,1.69,1.37,2.69,1.78,1.01.4,2.08.62,3.17.61,2.17,0,4.24-.87,5.78-2.4l29.24-29.24,29.24,29.24c1.55,1.54,3.64,2.4,5.82,2.4s4.27-.87,5.82-2.4c.77-.77,1.39-1.68,1.81-2.69.42-1,.64-2.08.64-3.17s-.22-2.17-.64-3.18c-.42-1.01-1.03-1.92-1.81-2.68L49.4,2.44c-.77-.78-1.68-1.39-2.69-1.81-1.01-.42-2.09-.64-3.18-.64s-2.17.21-3.18.64c-1.01.42-1.92,1.03-2.69,1.81L2.24,37.46c-.75.79-1.33,1.73-1.72,2.75Z"/>
  </g>
</svg>