<?xml version="1.0" encoding="UTF-8"?>
<svg id="Layer_2" xmlns="http://www.w3.org/2000/svg" viewBox="0 0 473.08 468.69">
  <defs>
    <style>
      .cls-1 {
        fill: #fff;
      }
    </style>
  </defs>
  <g id="Isolation_Mode">
    <path class="cls-1" d="M212.38,468.69c-9.73,0-17.64-7.92-17.64-17.65v-24.81c0-9.73,7.91-17.65,17.64-17.65h48.3c8.27,0,15.52,5.87,17.25,13.95l.75,3.53,3.6-.27c39.17-2.93,73.29-27.16,89.04-63.21l2.53-5.79h-13.09c-5.78,0-10.49-4.7-10.49-10.49v-141.86c0-5.78,4.71-10.49,10.49-10.49h18.28v-13.32c0-78.57-63.93-142.5-142.5-142.5S94.04,102.07,94.04,180.64v13.32h18.27c5.78,0,10.49,4.7,10.49,10.49v141.86c0,5.78-4.71,10.49-10.49,10.49h-30.89c-44.89,0-81.42-36.52-81.42-81.41,0-33.85,21.38-64.51,53.2-76.28l2.7-1v-17.46C55.9,81.04,136.94,0,236.54,0s180.64,81.04,180.64,180.64v17.45l2.7,1c31.82,11.78,53.21,42.44,53.21,76.29,0,40.51-30.28,75.16-70.43,80.58l-2.62.35-.78,2.53c-16,51.83-63.17,88.74-117.4,91.85l-3.27.19-.56,3.23c-1.48,8.45-8.77,14.58-17.33,14.58h-48.3Z"/>
  </g>
</svg>