<?xml version="1.0" encoding="UTF-8"?>
<svg id="Layer_2" xmlns="http://www.w3.org/2000/svg" viewBox="0 0 247.36 247.01">
  <defs>
    <style>
      .cls-1 {
        fill: #40bcc5;
      }
    </style>
  </defs>
  <g id="Layer_1-2" data-name="Layer_1">
    <g>
      <path class="cls-1" d="M121.81,246.67c-18.95,0-37.94.87-56.83-.19-36.06-2.01-62.25-26.42-63.73-62.11-1.69-40.67-1.65-81.52,0-122.19C2.61,28.82,25.55,3.69,58.57,1.82c43.42-2.45,87.18-2.39,130.62-.05,32.06,1.73,55.22,26.54,56.7,59.05,1.87,41.22,1.99,82.65.19,123.87-1.54,35.32-27.06,59.43-62.27,61.63-20.59,1.29-41.32.24-61.99.24v.1ZM124.8,22.17s0,.04,0,.06c-18.39,0-36.82-.71-55.17.16-29.42,1.4-46.91,18.84-47.57,48.29-.79,35.62-.92,71.28.08,106.89.81,28.94,18.15,47.06,46.12,47.86,36.75,1.06,73.58,1.04,110.33-.04,27.26-.81,45.35-17.6,46.3-43.87,1.37-37.88,1.4-75.88.04-113.77-1.02-28.28-19.6-44.57-48.41-45.48-17.23-.54-34.48-.1-51.72-.1Z"/>
      <path class="cls-1" d="M123.53,59.83c36.2.01,64.17,28.16,63.94,64.36-.22,34.81-28.89,63.43-63.61,63.5-35.29.07-64.37-29.39-64.07-64.9.3-35.08,28.54-62.97,63.75-62.96ZM124.16,164.99c23.01-.22,41.56-19.34,40.98-42.21-.57-22.21-18.92-40.42-41.05-40.74-22.71-.32-41.63,18.58-41.69,41.67-.06,23.03,18.63,41.51,41.77,41.28Z"/>
      <path class="cls-1" d="M202.02,50.37c0,8.04-6.51,14.55-14.55,14.55s-14.55-6.51-14.55-14.55,6.51-14.55,14.55-14.55,14.55,6.51,14.55,14.55Z"/>
    </g>
  </g>
</svg>