<?xml version="1.0" encoding="UTF-8"?>
<svg id="Layer_2" xmlns="http://www.w3.org/2000/svg" viewBox="0 0 601.02 503.1">
  <defs>
    <style>
      .cls-1 {
        fill: #40bcc5;
      }
    </style>
  </defs>
  <g id="Layer_1-2" data-name="Layer_1">
    <g>
      <path class="cls-1" d="M601.02,222.83v258.41c0,12.06-9.8,21.87-21.87,21.87H21.87c-12.06,0-21.87-9.8-21.87-21.87V223.08c9.28,17.17,21.12,33.09,35.31,47.28,38.46,38.45,89.59,59.63,143.98,59.63h55.1v28.28c0,6.71,5.44,12.16,12.16,12.16h107.92c6.71,0,12.16-5.45,12.16-12.16v-28.28h55.11c77.4,0,144.84-43.41,179.28-107.16Z"/>
      <path class="cls-1" d="M601.01,128.46c-1.11,97.91-81.1,177.21-179.27,177.21h-55.11v-28.28c0-6.71-5.45-12.16-12.16-12.16h-107.92c-6.72,0-12.16,5.45-12.16,12.16v28.28h-55.1C81.03,305.67.97,226.22.02,128.18c.3-11.79,9.98-21.28,21.85-21.28h557.29c11.96,0,21.7,9.64,21.86,21.56Z"/>
      <path class="cls-1" d="M402.64,43.1v39.48h-24.32v-39.48c0-10.36-8.42-18.78-18.78-18.78h-118.06c-10.36,0-18.78,8.42-18.78,18.78v39.48h-24.32v-39.48c0-23.76,19.34-43.1,43.1-43.1h118.06c23.76,0,43.1,19.34,43.1,43.1Z"/>
      <rect class="cls-1" x="258.71" y="289.55" width="83.6" height="56.55"/>
    </g>
  </g>
</svg>