<?xml version="1.0" encoding="UTF-8"?>
<svg id="Layer_2" xmlns="http://www.w3.org/2000/svg" viewBox="0 0 233.26 233.4">
  <defs>
    <style>
      .cls-1 {
        fill: #40bcc5;
      }
    </style>
  </defs>
  <g id="Layer_1-2" data-name="Layer_1">
    <g>
      <path class="cls-1" d="M233.25,233.4h-48.19c0-18.2.13-36.03-.04-53.85-.13-13.07-.3-26.16-1.11-39.2-.85-13.61-7.59-22.77-22.01-23.75-14.1-.95-24.99,4.7-28.25,19.13-2.13,9.41-2.28,19.37-2.42,29.1-.33,22.26-.1,44.54-.1,67.98h-47.44V78.38h44.02c.49,5.63.94,10.84,1.09,12.59,14.84-5.64,29.59-14.91,45.08-16.37,34.9-3.29,54.83,15.59,58.63,51.03.81,7.56.69,15.24.71,22.87.08,27.75.03,55.49.03,84.91Z"/>
      <path class="cls-1" d="M51.49,233.38H4.74V78.7h46.76v154.68Z"/>
      <path class="cls-1" d="M55.85,28.2c-.08,14.9-13.34,28.02-28.3,28.01C12.29,56.19-.06,43.53,0,27.98.06,12.44,12.5-.08,27.79,0c15.06.08,28.14,13.23,28.06,28.2Z"/>
    </g>
  </g>
</svg>