<?xml version="1.0" encoding="UTF-8"?>
<svg id="Layer_2" xmlns="http://www.w3.org/2000/svg" viewBox="0 0 397.24 215.86">
  <defs>
    <style>
      .cls-1 {
        fill: #fff;
      }
    </style>
  </defs>
  <g id="Layer_1-2" data-name="Layer_1">
    <g>
      <path class="cls-1" d="M192.11,140.41l-16.8-15.48c-7.15-6.43-10.97-11.67-10.97-21.22,0-7.48,3.98-13.22,11.32-13.22,10.81,0,12.64,9.91,13.14,23.13l21.1-3.84c-1.34-20.51-8.47-38.25-33.74-38.25-21.45,0-34.74,12.53-34.74,34.8,0,15.65,5.99,25.37,15.62,34.08l16.96,15.46c8.81,8,14.8,14.79,14.8,26.96,0,7.65-3.32,13.22-11.16,13.22-10.79,0-14.62-10.79-15.28-27.49l-21.13,4.36c1,27.99,12.64,42.94,37.25,42.94,20.1,0,33.74-14.27,33.74-34.61,0-18.6-9.13-30.94-20.1-40.85Z"/>
      <path class="cls-1" d="M300.82,145.72h-36.59v15.46h14.48v12.64c0,14.64-3.01,23.95-14.8,23.95s-14.64-8.83-14.64-22.79v-62.72c0-12.29,1-22.77,13.98-22.77,12.13,0,13.46,7.65,13.46,20.6v7.65h23.43v-6.99c0-24.93-9.63-39.23-37.22-39.23-29.6,0-38.41,17.62-38.41,46.56v51.56c0,28.44,9.31,46.22,35.9,46.22,12.48,0,19.12-6.31,22.79-14.96l1.82,14.96h15.96l-.16-70.15Z"/>
      <path class="cls-1" d="M371.78,71.41v64.18h-27.43v-64.18h-24.43v144.45h24.43v-62.65h27.43v62.65h24.61V71.41h-24.61Z"/>
    </g>
    <path class="cls-1" d="M105.22,18.04C94.06,6.89,78.67,0,61.64,0,27.61,0,0,27.59,0,61.64v154.22h13.86v-38.29c-.1-16.33-.1-12.91,0-29.22v-10.68h.07c.02-.52.02-1.04.02-1.54.2-18.39,7.01-34.7,23.32-45.88-5.78,15.59-6.99,31.5-7.36,47.46v78.15h23.3v-71.36c-.15-18.12-.25-36.26-.12-54.31l3.25,2.85,12.05-10.93c-.02.55-.02,1.07-.02,1.56-.1,7.73-.15,15.47-.22,23.2v108.98h25.23v-118.15c-.37-15.96-1.59-31.87-7.36-47.44,16.31,11.18,23.13,27.49,23.32,45.85,0,.52,0,1.02.02,1.54l.07,11.4c.12,16.31.1,25.21,0,41.52v65.29h13.86V61.64c0-17.03-6.92-32.42-18.07-43.6ZM40.57,38.27l14.08,12.86-14.08,12.59-14.1-12.59,14.1-12.86ZM68.43,80.01l-12.1,10.98-3.25-2.85-12.27-10.78-14.7,13.39-16.21-14.23,16.21-14.45,14.7,13.63,14.95-13.16.57-.49,12.02,10.91.42.37,3.52,3.2-3.87,3.5ZM71.88,56.93c-1.54,3.69-2.43,9.1-2.92,14.47l-12.39-11.23c6.22-17.7,20.47-31.43,37.28-43.75-7.93,16.26-16.31,21.39-21.96,40.5Z"/>
    <g>
      <path class="cls-1" d="M157.98,26.34h-1.96c-2.35,0-3.85-.69-4.48-2.11-.69,1.41-2.17,2.11-4.42,2.11-3.82,0-5.75-2.29-5.75-6.89s1.93-6.68,5.75-6.68h6.11v8.03c0,2.05.99,3.07,2.95,3.07h1.81v2.47ZM150.36,15.08h-3.07c-1.17,0-2.02.39-2.47,1.17-.39.63-.6,1.72-.6,3.19s.21,2.56.6,3.22c.45.81,1.29,1.2,2.47,1.2s2.02-.39,2.47-1.2c.39-.66.6-1.75.6-3.22v-4.36ZM147.75,8.52c0,.84-.72,1.56-1.59,1.56s-1.56-.72-1.56-1.56.72-1.53,1.56-1.53,1.59.69,1.59,1.53ZM151.78,8.52c0,.84-.72,1.56-1.56,1.56s-1.53-.72-1.53-1.56.69-1.53,1.53-1.53,1.56.69,1.56,1.53ZM162.82,26.34h-5.57v-2.53h5.57v2.53ZM188.88,26.34h-26.72v-2.53h3.55v-7.61l2.86-.81v6.2c.39-1.5,1.05-2.92,1.93-4.21,1.9-2.89,4.51-4.36,7.85-4.45,2.92-.09,5.15,1.08,6.62,3.46,1.02,1.72,1.47,4.18,1.35,7.43h2.56v2.53ZM183.43,23.81c.06-.48.09-.96.09-1.47,0-1.87-.36-3.4-1.11-4.63-.93-1.44-2.26-2.17-4-2.17-2.14,0-4.06,1.02-5.84,3.07-1.59,1.78-2.44,3.49-2.56,5.21h13.42ZM180.21,8.49c0,.87-.75,1.56-1.62,1.56-.93,0-1.65-.69-1.65-1.56s.72-1.56,1.65-1.56c.87,0,1.62.72,1.62,1.56ZM196.21,21.01c0,1.53-.51,2.83-1.53,3.82-1.02.99-2.41,1.5-4.12,1.5h-2.32v-2.47h2.17c1.99,0,2.98-1.02,2.98-3.07v-7.19l2.83-.84v8.24ZM194.41,30.55c0,.84-.72,1.56-1.56,1.56s-1.53-.72-1.53-1.56.72-1.53,1.53-1.53,1.56.69,1.56,1.53ZM205.96,26.34h-3.19c-2.56,0-3.97-1.56-3.97-3.88V7.83l2.86-.9v15.44c0,.96.48,1.44,1.47,1.44h2.83v2.53ZM221.94,26.34h-6.53c-.57,0-1.17-.06-1.78-.18-.57.12-1.14.18-1.78.18h-6.65v-2.47h4.42c-1.23-1.35-1.84-2.8-1.87-4.27-.06-1.9.33-3.46,1.17-4.66,1.05-1.44,2.62-2.17,4.69-2.17s3.67.72,4.69,2.17c.84,1.2,1.26,2.77,1.23,4.66-.06,1.47-.69,2.92-1.93,4.27h4.3v2.47ZM213.09,8.52c0,.84-.72,1.56-1.59,1.56s-1.56-.72-1.56-1.56.72-1.53,1.56-1.53,1.59.69,1.59,1.53ZM213.63,15.29c-1.96,0-3.13,1.65-3.13,3.7,0,1.05.24,2.02.75,2.89.6.99,1.38,1.69,2.38,2.02,1.02-.33,1.81-1.02,2.38-2.02.51-.87.78-1.84.78-2.89,0-2.05-1.11-3.7-3.16-3.7ZM217.12,8.52c0,.84-.72,1.56-1.56,1.56s-1.56-.72-1.56-1.56.72-1.53,1.56-1.53,1.56.69,1.56,1.53ZM228.77,21.01c0,1.53-.51,2.8-1.53,3.82-1.02.99-2.41,1.5-4.12,1.5h-1.93v-2.53h1.78c1.96,0,2.95-1.02,2.95-3.07V7.83l2.86-.84v14.02ZM234.21,26.34h-2.86V7.83l2.86-.9v19.41ZM262.13,26.34h-1.23c-4.03,0-6.5-2.14-7.4-6.38h-4.09c-2.89,0-4.81,2.02-4.81,4.93s2.02,4.72,4.81,4.72c1.78,0,3.34-.57,4.66-1.69v3.04c-1.32.75-2.89,1.14-4.66,1.14-2.14,0-3.97-.66-5.48-2.02s-2.26-3.07-2.26-5.21.72-4.03,2.17-5.39c1.47-1.35,3.31-2.05,5.57-2.05h3.31c-.9-2.08-2.29-3.13-4.12-3.13-1.5,0-3.04.72-4.57,2.17l-1.72-1.59c2.14-2.05,4.24-3.04,6.29-3.01,2.62.06,4.51,1.11,5.63,3.16.75,1.93,1.47,3.85,2.23,5.75.99,2.02,2.62,3.01,4.87,3.01h.81v2.53ZM250.34,7.65c0,.84-.72,1.56-1.56,1.56s-1.59-.72-1.59-1.56.72-1.56,1.59-1.56,1.56.72,1.56,1.56ZM266.97,26.34h-5.57v-2.53h5.57v2.53ZM274.22,21.01c0,1.53-.51,2.83-1.53,3.82s-2.41,1.5-4.12,1.5h-2.32v-2.47h2.17c1.99,0,2.98-1.02,2.98-3.07v-7.19l2.83-.84v8.24ZM269.53,30.55c0,.84-.72,1.56-1.53,1.56s-1.56-.72-1.56-1.56.72-1.53,1.56-1.53,1.53.69,1.53,1.53ZM273.59,30.55c0,.84-.69,1.56-1.53,1.56s-1.59-.72-1.59-1.56.72-1.53,1.59-1.53,1.53.69,1.53,1.53ZM291.77,26.34h-3.55c-.27,1.65-.9,2.98-1.96,4.03-1.14,1.17-2.59,1.75-4.36,1.75-1.53,0-2.71-.27-3.52-.78l-1.26-2.77c1.69.75,3.25,1.11,4.72,1.05,1.9-.03,3.28-1.5,3.52-3.28h-2.35c-2.02-.03-3.58-.63-4.66-1.81-1.02-1.08-1.53-2.53-1.53-4.33,0-1.99.45-3.58,1.32-4.81,1.05-1.47,2.62-2.23,4.66-2.23,3.82,0,5.75,2.35,5.75,7.04,0,.93-.03,2.17-.06,3.67h3.28v2.47ZM285.69,20.2c0-1.41-.12-2.41-.39-3.04-.42-.99-1.26-1.5-2.5-1.5-2.08,0-3.13,1.5-3.13,4.54,0,2.44,1.11,3.67,3.34,3.67h2.65l.03-3.67ZM318.45,26.34h-27.35v-2.53h3.55v-7.61l2.86-.81v8.43h5.96v-8.88l2.86-.84v9.72h6.02v-10.2l2.86-.84v11.04h3.25v2.53ZM304.28,8.52c0,.84-.72,1.56-1.56,1.56s-1.53-.72-1.53-1.56.69-1.59,1.53-1.59,1.56.72,1.56,1.59ZM306.33,5.03c0,.81-.72,1.53-1.56,1.53s-1.56-.72-1.56-1.53.72-1.56,1.56-1.56,1.56.72,1.56,1.56ZM308.34,8.52c0,.84-.72,1.56-1.56,1.56s-1.56-.72-1.56-1.56.69-1.59,1.56-1.59,1.56.72,1.56,1.59ZM325.4,21.01c0,1.53-.51,2.8-1.53,3.82-1.02.99-2.41,1.5-4.12,1.5h-1.93v-2.53h1.78c1.96,0,2.95-1.02,2.95-3.07V7.83l2.86-.84v14.02ZM330.84,26.34h-2.86V7.83l2.86-.9v19.41ZM354.91,26.34h-1.96c-2.35,0-3.85-.69-4.48-2.11-.69,1.41-2.17,2.11-4.42,2.11-3.82,0-5.75-2.29-5.75-6.89s1.93-6.68,5.75-6.68h6.11v8.03c0,2.05.99,3.07,2.95,3.07h1.81v2.47ZM347.3,15.08h-3.07c-1.17,0-2.02.39-2.47,1.17-.39.63-.6,1.72-.6,3.19s.21,2.56.6,3.22c.45.81,1.29,1.2,2.47,1.2s2.02-.39,2.47-1.2c.39-.66.6-1.75.6-3.22v-4.36ZM344.68,8.52c0,.84-.72,1.56-1.59,1.56s-1.56-.72-1.56-1.56.72-1.53,1.56-1.53,1.59.69,1.59,1.53ZM348.72,8.52c0,.84-.72,1.56-1.56,1.56s-1.53-.72-1.53-1.56.69-1.53,1.53-1.53,1.56.69,1.56,1.53ZM359.76,26.34h-5.57v-2.53h5.57v2.53ZM367.01,21.01c0,1.53-.51,2.83-1.53,3.82-1.02.99-2.41,1.5-4.12,1.5h-2.32v-2.47h2.17c1.99,0,2.98-1.02,2.98-3.07v-7.19l2.83-.84v8.24ZM365.2,30.55c0,.84-.72,1.56-1.56,1.56s-1.53-.72-1.53-1.56.72-1.53,1.53-1.53,1.56.69,1.56,1.53ZM372.45,26.34h-2.86V7.83l2.86-.9v19.41ZM389.99,26.34h-3.55c-.27,1.65-.9,2.98-1.96,4.03-1.14,1.17-2.59,1.75-4.36,1.75-1.53,0-2.71-.27-3.52-.78l-1.26-2.77c1.69.75,3.25,1.11,4.72,1.05,1.9-.03,3.28-1.5,3.52-3.28h-2.35c-2.02-.03-3.58-.63-4.66-1.81-1.02-1.08-1.53-2.53-1.53-4.33,0-1.99.45-3.58,1.32-4.81,1.05-1.47,2.62-2.23,4.66-2.23,3.82,0,5.75,2.35,5.75,7.04,0,.93-.03,2.17-.06,3.67h3.28v2.47ZM383.92,20.2c0-1.41-.12-2.41-.39-3.04-.42-.99-1.26-1.5-2.5-1.5-2.08,0-3.13,1.5-3.13,4.54,0,2.44,1.11,3.67,3.34,3.67h2.65l.03-3.67ZM397.24,21.01c0,1.53-.51,2.83-1.53,3.82-1.02.99-2.41,1.5-4.12,1.5h-2.32v-2.47h2.17c1.99,0,2.98-1.02,2.98-3.07v-7.19l2.83-.84v8.24ZM395.44,30.55c0,.84-.72,1.56-1.56,1.56s-1.53-.72-1.53-1.56.72-1.53,1.53-1.53,1.56.69,1.56,1.53Z"/>
      <g>
        <path class="cls-1" d="M141.22,50.56l.77-.88c1.74,1.6,3.34,2.35,5.66,2.35s3.99-1.33,3.99-3.14v-.05c0-1.67-.88-2.64-4.47-3.36-3.79-.77-5.33-2.05-5.33-4.45v-.05c0-2.35,2.14-4.15,5.08-4.15,2.3,0,3.81.63,5.42,1.92l-.74.93c-1.49-1.29-2.98-1.78-4.72-1.78-2.32,0-3.86,1.33-3.86,2.98v.05c0,1.67.86,2.69,4.6,3.45,3.66.75,5.19,2.05,5.19,4.36v.05c0,2.55-2.19,4.31-5.24,4.31-2.53,0-4.47-.83-6.36-2.53Z"/>
        <path class="cls-1" d="M156.43,36.39h1.11v7.11c.77-1.35,2.05-2.41,4.15-2.41,2.91,0,4.6,1.99,4.6,4.74v7.04h-1.11v-6.84c0-2.37-1.33-3.93-3.66-3.93s-3.99,1.71-3.99,4.11v6.66h-1.11v-16.47Z"/>
        <path class="cls-1" d="M170.03,48.39v-7.04h1.11v6.84c0,2.37,1.33,3.93,3.66,3.93s3.99-1.71,3.99-4.11v-6.66h1.11v11.51h-1.11v-2.14c-.77,1.35-2.05,2.41-4.15,2.41-2.91,0-4.6-1.99-4.6-4.74Z"/>
        <path class="cls-1" d="M183.1,41.35h1.24l3.47,10.11,3.48-10.15h.88l3.48,10.15,3.47-10.11h1.2l-4.22,11.6h-.95l-3.43-9.86-3.45,9.86h-.95l-4.22-11.6Z"/>
        <path class="cls-1" d="M202.14,49.52v-.05c0-2.39,2.05-3.75,5.03-3.75,1.6,0,2.71.2,3.81.5v-.5c0-2.32-1.42-3.52-3.79-3.52-1.4,0-2.55.38-3.61.93l-.41-.97c1.26-.59,2.51-.99,4.08-.99s2.8.43,3.63,1.26c.77.77,1.17,1.83,1.17,3.25v7.18h-1.08v-1.92c-.79,1.11-2.21,2.19-4.4,2.19s-4.45-1.22-4.45-3.61ZM211.01,48.55v-1.31c-.97-.25-2.26-.52-3.9-.52-2.44,0-3.79,1.08-3.79,2.69v.05c0,1.67,1.58,2.64,3.34,2.64,2.35,0,4.36-1.44,4.36-3.54Z"/>
        <path class="cls-1" d="M216.06,36.84h1.38v1.51h-1.38v-1.51ZM216.19,41.35h1.11v11.51h-1.11v-11.51Z"/>
        <path class="cls-1" d="M221.65,36.39h1.11v12.34l7.13-7.38h1.47l-5.03,5.1,5.19,6.41h-1.4l-4.56-5.62-2.8,2.82v2.8h-1.11v-16.47Z"/>
        <path class="cls-1" d="M234.29,36.39h1.11v7.11c.77-1.35,2.05-2.41,4.15-2.41,2.91,0,4.6,1.99,4.6,4.74v7.04h-1.11v-6.84c0-2.37-1.33-3.93-3.66-3.93s-3.99,1.71-3.99,4.11v6.66h-1.11v-16.47Z"/>
        <path class="cls-1" d="M254.43,45.01v-.05c0-4.26,3.09-8.17,7.81-8.17,2.57,0,4.2.77,5.78,2.08l-.77.88c-1.24-1.08-2.69-1.9-5.08-1.9-3.84,0-6.52,3.25-6.52,7.06v.05c0,4.08,2.55,7.13,6.77,7.13,2.01,0,3.88-.83,5.03-1.8v-4.54h-5.28v-1.08h6.41v6.09c-1.42,1.26-3.63,2.37-6.21,2.37-4.99,0-7.94-3.68-7.94-8.12Z"/>
        <path class="cls-1" d="M271.83,49.52v-.05c0-2.39,2.05-3.75,5.03-3.75,1.6,0,2.71.2,3.81.5v-.5c0-2.32-1.42-3.52-3.79-3.52-1.4,0-2.55.38-3.61.93l-.41-.97c1.26-.59,2.5-.99,4.08-.99s2.8.43,3.63,1.26c.77.77,1.17,1.83,1.17,3.25v7.18h-1.08v-1.92c-.79,1.11-2.21,2.19-4.4,2.19s-4.45-1.22-4.45-3.61ZM280.7,48.55v-1.31c-.97-.25-2.26-.52-3.9-.52-2.44,0-3.79,1.08-3.79,2.69v.05c0,1.67,1.58,2.64,3.34,2.64,2.35,0,4.36-1.44,4.36-3.54Z"/>
        <path class="cls-1" d="M286.25,49.9v-7.54h-1.67v-1.02h1.67v-3.68h1.11v3.68h4.04v1.02h-4.04v7.42c0,1.65.97,2.23,2.3,2.23.56,0,1.04-.11,1.69-.41v1.04c-.59.27-1.15.41-1.87.41-1.78,0-3.23-.97-3.23-3.16Z"/>
        <path class="cls-1" d="M293.56,47.13v-.05c0-3.34,2.35-6,5.46-6s5.28,2.62,5.28,6.02c0,.2,0,.27-.02.45h-9.55c.2,2.87,2.26,4.54,4.51,4.54,1.78,0,3-.79,3.95-1.8l.77.68c-1.17,1.26-2.55,2.17-4.76,2.17-3.02,0-5.64-2.41-5.64-6ZM303.1,46.57c-.16-2.32-1.49-4.47-4.13-4.47-2.28,0-4.04,1.92-4.24,4.47h8.37Z"/>
        <path class="cls-1" d="M314.54,37.06h1.17v7.31h10.11v-7.31h1.17v15.8h-1.17v-7.4h-10.11v7.4h-1.17v-15.8Z"/>
        <path class="cls-1" d="M330.65,47.15v-.05c0-3.23,2.5-6.02,5.93-6.02s5.89,2.75,5.89,5.98v.05c0,3.23-2.5,6.03-5.93,6.03s-5.89-2.75-5.89-5.98ZM341.28,47.15v-.05c0-2.78-2.08-4.99-4.74-4.99s-4.69,2.23-4.69,4.94v.05c0,2.78,2.08,4.99,4.74,4.99s4.69-2.23,4.69-4.94Z"/>
        <path class="cls-1" d="M346.03,36.39h1.11v16.47h-1.11v-16.47Z"/>
        <path class="cls-1" d="M350.75,47.15v-.05c0-3.75,2.82-6.02,5.6-6.02,2.3,0,3.79,1.31,4.74,2.75v-7.45h1.11v16.47h-1.11v-2.57c-.99,1.51-2.46,2.84-4.74,2.84-2.77,0-5.6-2.23-5.6-5.98ZM361.15,47.13v-.05c0-2.96-2.3-4.94-4.69-4.94s-4.51,1.83-4.51,4.92v.05c0,3.02,2.1,4.96,4.51,4.96s4.69-2.01,4.69-4.94Z"/>
        <path class="cls-1" d="M366.41,36.84h1.38v1.51h-1.38v-1.51ZM366.54,41.35h1.11v11.51h-1.11v-11.51Z"/>
        <path class="cls-1" d="M372,41.35h1.11v2.14c.77-1.35,2.05-2.41,4.15-2.41,2.91,0,4.6,1.99,4.6,4.74v7.04h-1.11v-6.84c0-2.37-1.33-3.93-3.66-3.93s-3.99,1.71-3.99,4.11v6.66h-1.11v-11.51Z"/>
        <path class="cls-1" d="M385.61,54.76l.65-.9c1.38,1.06,2.96,1.62,4.65,1.62,2.64,0,4.51-1.51,4.51-4.47v-1.67c-.99,1.42-2.53,2.66-4.81,2.66-2.77,0-5.53-2.12-5.53-5.42v-.05c0-3.32,2.75-5.46,5.53-5.46,2.3,0,3.86,1.22,4.81,2.57v-2.3h1.11v9.73c0,1.67-.54,2.98-1.47,3.9-.99.99-2.48,1.54-4.17,1.54-1.92,0-3.7-.59-5.28-1.76ZM395.49,46.57v-.05c0-2.66-2.37-4.38-4.76-4.38s-4.45,1.67-4.45,4.36v.05c0,2.59,2.08,4.4,4.45,4.4s4.76-1.76,4.76-4.38Z"/>
      </g>
    </g>
  </g>
</svg>