<?xml version="1.0" encoding="UTF-8"?>
<svg id="Layer_2" xmlns="http://www.w3.org/2000/svg" viewBox="0 0 148.75 99.18">
  <defs>
    <style>
      .cls-1 {
        fill: #fff;
      }
    </style>
  </defs>
  <g id="Layer_1-2" data-name="Layer_1">
    <path class="cls-1" d="M93.29,43.72c-.78.77-1.39,1.68-1.81,2.69-.42,1.01-.64,2.09-.64,3.18s.21,2.17.64,3.18c.42,1.01,1.03,1.92,1.81,2.69l41.29,41.29c.77.77,1.68,1.39,2.68,1.81,1.01.42,2.09.64,3.18.64s2.17-.22,3.18-.64c1-.42,1.92-1.03,2.68-1.81.78-.77,1.39-1.68,1.81-2.69.42-1.01.64-2.09.64-3.18s-.21-2.17-.64-3.18c-.42-1.01-1.03-1.92-1.81-2.69l-35.51-35.43,35.51-35.43c1.55-1.56,2.43-3.66,2.43-5.86s-.88-4.31-2.43-5.86c-1.55-1.56-3.67-2.43-5.86-2.43s-4.31.87-5.86,2.43l-41.29,41.29ZM2.44,85.01c-.78.77-1.39,1.68-1.81,2.69-.42,1.01-.64,2.09-.64,3.18s.21,2.17.64,3.18c.42,1.01,1.03,1.92,1.81,2.69.77.77,1.68,1.39,2.68,1.81,1.01.42,2.09.64,3.18.64s2.17-.22,3.18-.64c1-.42,1.92-1.03,2.68-1.81l41.29-41.29c.78-.77,1.39-1.68,1.81-2.69.42-1.01.64-2.09.64-3.18s-.21-2.17-.64-3.18c-.42-1.01-1.03-1.92-1.81-2.69L14.17,2.43c-1.55-1.56-3.67-2.43-5.86-2.43S4,.87,2.44,2.43C.89,3.98.02,6.09.02,8.29s.88,4.31,2.43,5.86l35.51,35.43L2.44,85.01Z"/>
  </g>
</svg>