<?xml version="1.0" encoding="UTF-8"?>
<svg xmlns="http://www.w3.org/2000/svg" version="1.1" xmlns:xlink="http://www.w3.org/1999/xlink" viewBox="0 0 1133.9 623.6">
  <defs>
    <style>
      .cls-1 {
        clip-path: url(#clippath-4);
      }

      .cls-2 {
        fill: none;
      }

      .cls-3 {
        clip-path: url(#clippath-1);
      }

      .cls-4 {
        clip-path: url(#clippath-3);
      }

      .cls-5 {
        fill: #40bdc6;
      }

      .cls-6 {
        opacity: 0;
      }

      .cls-7 {
        clip-path: url(#clippath-2);
      }

      .cls-8 {
        clip-path: url(#clippath);
      }

      .cls-9 {
        fill: #bfbfbf;
      }
    </style>
    <clipPath id="clippath">
      <rect class="cls-2" x="-123.3" y="-439.3" width="72.1" height="144.2"/>
    </clipPath>
    <clipPath id="clippath-1">
      <rect class="cls-2" x="939.4" y="-867.2" width="71.1" height="143.7"/>
    </clipPath>
    <clipPath id="clippath-2">
      <rect class="cls-2" x="-123.3" y="-910.8" width="1133.9" height="623.6"/>
    </clipPath>
    <clipPath id="clippath-3">
      <rect class="cls-2" x="724.6" y="-592.4" width="378.2" height="366.8"/>
    </clipPath>
    <clipPath id="clippath-4">
      <polygon class="cls-2" points="724.6 -273.6 1053.4 -225.7 1102.9 -544.5 774.1 -592.4 724.6 -273.6"/>
    </clipPath>
  </defs>
  <!-- Generator: Adobe Illustrator 28.7.5, SVG Export Plug-In . SVG Version: 1.2.0 Build 176)  -->
  <g>
    <g id="Layer_1">
      <g class="cls-8">
        <path class="cls-5" d="M-123.3-298.3l32.4-29.6-32.4-29-32.4,29,32.4,29.6ZM-93.3-327.9l-30,27.4-30-27.4,30-26.8,30,26.8ZM-183.5-373.1l26.6,24.2.3-.2,32.8-28.8,31.3,29,36.9-33-36.9-32.4-31.3,28.4-26.1-22.9-6.9-6.1-25.7,23.3-10.7,9.8,9.8,8.8ZM-156.9-412.7l6.9,6.1,26.1,22.9,31.3-28.5,34.5,30.3-34.5,30.8-31.3-29-31.8,28-1.2,1.1-25.6-23.2-.9-.8-7.5-6.8,8.2-7.4,25.7-23.4Z"/>
        <path class="cls-5" d="M-183.8-371.1l26.4,23.9.5.4,33-29,31.3,29,39.5-35.2-39.5-34.6-31.3,28.4-26.1-22.9-6.9-6.1-25.6,23.3-13.2,11.9,12,10.9ZM-92.6-351.2l-31.3-29-31.8,28-1.2,1.1-25.6-23.2-.9-.8-7.5-6.8,8.2-7.4,25.7-23.4,6.9,6.1,26.1,22.9,31.3-28.5,34.5,30.3-34.5,30.8ZM-123.3-296.1l34.9-31.8-34.9-31.2-34.8,31.2,34.8,31.8ZM-123.3-300.5l-30-27.4,30-26.8,30,26.8-30,27.4Z"/>
      </g>
      <g class="cls-3">
        <path class="cls-5" d="M1011.4-864.1l-32.3,29.5,32.3,28.9,32.3-28.9-32.3-29.5ZM981.4-834.6l29.9-27.3,29.9,27.3-29.9,26.7-29.9-26.7ZM1071.3-789.5l-26.5-24.1-.3.2-32.6,28.7-31.2-28.9-36.8,32.9,36.8,32.3,31.2-28.3,26,22.9,6.9,6,25.6-23.2,10.7-9.7-9.7-8.8ZM1044.8-750l-6.9-6-26-22.9-31.2,28.4-34.4-30.2,34.4-30.7,31.2,28.9,31.7-27.9,1.2-1.1,25.5,23.1.9.8,7.5,6.8-8.2,7.4-25.7,23.3Z"/>
        <path class="cls-5" d="M1071.5-791.6l-26.3-23.8-.5-.4-32.9,28.9-31.2-28.9-39.3,35.1,39.3,34.4,31.2-28.3,26,22.9,6.9,6,25.5-23.2,13.1-11.9-11.9-10.8ZM980.7-811.4l31.2,28.9,31.7-27.9,1.2-1,25.5,23.1.9.8,7.5,6.8-8.2,7.4-25.7,23.3-6.9-6-26-22.9-31.2,28.4-34.4-30.2,34.4-30.7ZM1011.4-866.3l-34.8,31.7,34.8,31.1,34.7-31.1-34.7-31.7ZM1011.4-861.9l29.9,27.3-29.9,26.7-29.9-26.7,29.9-27.3Z"/>
      </g>
      <g class="cls-7">
        <g class="cls-6">
          <g class="cls-4">
            <g class="cls-1">
              <path class="cls-9" d="M933.9-450.1l-16.9,10.7-12.8-15,16.9-11,12.8,15.3ZM914.6-425.5l-14.6,9.1-3.9,2.4-11-13.1-3.5-4.2,4.2-2.7.5-.3,14.4-9.3.5.6,13.7,15.8,17.7-11.7,14.8,17.3-19.3,12.1-13.4-16Z"/>
              <path class="cls-9" d="M941.7-500.2l-16.9,10.7-12.8-15,16.9-11,12.8,15.3ZM922.4-475.6l-14.6,9.1-3.9,2.4-11-13.1-3.5-4.2,4.2-2.7.5-.3,14.4-9.3.5.6,13.7,15.8,17.7-11.7,14.8,17.3-19.3,12.1-13.4-16Z"/>
              <path class="cls-9" d="M983.3-415.9l-16.9,10.7-12.8-15,16.9-11,12.8,15.3ZM964-391.3l-14.6,9.1-3.9,2.4-11-13.1-3.5-4.2,4.2-2.7.5-.3,14.4-9.3.5.6,13.7,15.8,17.7-11.7,14.8,17.3-19.3,12.1-13.4-16Z"/>
              <path class="cls-9" d="M997.8-511.4l-16.9,10.7-12.8-15,16.9-11,12.8,15.3ZM978.5-486.8l-14.6,9.1-3.9,2.4-11-13.1-3.5-4.2,4.2-2.7.5-.3,14.4-9.3.5.6,13.7,15.8,17.7-11.7,14.8,17.3-19.3,12.1-13.4-16Z"/>
              <path class="cls-9" d="M884.7-483.8l-16.9,10.7-12.8-15,16.9-11,12.8,15.3ZM865.4-459.1l-14.6,9.1-3.9,2.4-11-13.1-3.5-4.2,4.2-2.7.5-.3,14.4-9.3.5.6,13.7,15.8,17.7-11.7,14.8,17.3-19.3,12.1-13.4-16Z"/>
              <path class="cls-9" d="M856.4-325.8l-16.9,10.7-12.8-15,16.9-11,12.8,15.3ZM837.1-301.2l-14.6,9.1-3.9,2.4-11-13.1-3.5-4.2,4.2-2.7.5-.3,14.4-9.3.5.6,13.7,15.8,17.7-11.7,14.8,17.3-19.3,12.1-13.4-15.9Z"/>
              <path class="cls-9" d="M995.6-338.5l-16.9,10.7-12.8-15,16.9-11,12.8,15.3ZM976.3-313.9l-14.6,9.1-3.9,2.4-11-13.1-3.5-4.2,4.2-2.7.5-.3,14.4-9.3.5.6,13.7,15.8,17.7-11.7,14.8,17.3-19.3,12.1-13.4-15.9Z"/>
              <path class="cls-9" d="M820-423.6l-16.9,10.7-12.8-15,16.9-11,12.8,15.3ZM800.7-399l-14.6,9.1-3.9,2.4-11-13.1-3.5-4.2,4.2-2.7.5-.3,14.4-9.3.5.6,13.7,15.8,17.7-11.7,14.8,17.3-19.3,12.1-13.4-16Z"/>
              <path class="cls-9" d="M926.5-402.1l-16.9,10.7-12.8-15,16.9-11,12.8,15.3ZM907.2-377.5l-14.6,9.1-3.9,2.4-11-13.1-3.5-4.2,4.2-2.7.5-.3,14.4-9.3.5.6,13.7,15.8,17.7-11.7,14.8,17.3-19.3,12.1-13.4-16Z"/>
              <path class="cls-9" d="M918.7-352l-16.9,10.7-12.8-15,16.9-11,12.8,15.3ZM899.4-327.4l-14.6,9.1-3.9,2.4-11-13.1-3.5-4.2,4.2-2.7.5-.3,14.4-9.3.5.6,13.7,15.8,17.7-11.7,14.8,17.3-19.3,12.1-13.4-16Z"/>
              <path class="cls-9" d="M869.5-385.5l-16.9,10.7-12.8-15,16.9-11,12.8,15.3ZM850.2-360.9l-14.6,9.1-3.9,2.4-11-13.1-3.5-4.2,4.2-2.7.5-.3,14.4-9.3.5.6,13.7,15.8,17.7-11.7,14.8,17.3-19.3,12.1-13.4-16Z"/>
              <polygon class="cls-9" points="951.3 -299.5 934.4 -288.8 921.5 -303.8 938.4 -314.8 951.3 -299.5"/>
              <path class="cls-9" d="M834.1-509.3l-16.9,10.7-12.8-15,16.9-11,12.8,15.3ZM814.8-484.7l-14.6,9.1-3.9,2.4-11-13.1-3.5-4.2,4.2-2.7.5-.3,14.4-9.3.5.6,13.7,15.8,17.7-11.7,14.8,17.3-19.3,12.1-13.4-16Z"/>
            </g>
          </g>
        </g>
      </g>
    </g>
  </g>
</svg>